
<svg width="1067px" height="221px" viewBox="0 0 1067 221" version="1.1" xmlns="http://www.w3.org/2000/svg" xmlns:xlink="http://www.w3.org/1999/xlink">
    <g id="Welcome" stroke="none" stroke-width="1" fill="none" fill-rule="evenodd" opacity="0.365722656">
        <g id="start-state" transform="translate(-6.000000, -485.000000)" fill="#DBDBDB" fill-rule="nonzero">
            <g id="Group-2" transform="translate(-55.000000, 344.000000)">
                <g id="Eosio_logo" transform="translate(952.619179, 265.111576) rotate(-32.000000) translate(-952.619179, -265.111576) translate(769.619179, 157.611576)">
                    <path d="M219.956898,37.457134 L206.524356,55.7031697 L200.818497,82.5424996 L219.956898,93.9609865 L239.0953,82.5424996 L233.389441,55.5854533 L219.956898,37.457134 Z M209.615029,56.1740351 L219.956898,42.1657884 L230.298767,56.1740351 L219.956898,86.8980049 L209.615029,56.1740351 Z M231.725232,60.7649731 L236.004626,81.2476197 L221.977723,89.6054812 L231.725232,60.7649731 Z M203.90917,81.2476197 L208.188564,60.7649731 L217.936073,89.6054812 L203.90917,81.2476197 Z" id="Shape" transform="translate(219.956898, 65.709060) rotate(16.000000) translate(-219.956898, -65.709060) "></path>
                    <path d="M26.8438213,24.4268914 L13.4112785,42.6729271 L7.70541964,69.512257 L26.8438213,80.9307439 L45.9822229,69.512257 L40.2763641,42.5552107 L26.8438213,24.4268914 Z M16.5019521,43.1437925 L26.8438213,29.1355458 L37.1856905,43.1437925 L26.8438213,73.8677623 L16.5019521,43.1437925 Z M38.6121552,47.7347306 L42.8915494,68.2173771 L28.8646463,76.5752386 L38.6121552,47.7347306 Z M10.7960932,68.2173771 L15.0754874,47.7347306 L24.8229963,76.5752386 L10.7960932,68.2173771 Z" id="Shape" transform="translate(26.843821, 52.678818) rotate(16.000000) translate(-26.843821, -52.678818) "></path>
                    <path d="M226.376895,158.241584 L212.944352,176.48762 L207.238493,203.32695 L226.376895,214.745437 L245.515296,203.32695 L239.809437,176.369903 L226.376895,158.241584 Z M216.035025,176.958485 L226.376895,162.950238 L236.718764,176.958485 L226.376895,207.682455 L216.035025,176.958485 Z M238.145228,181.549423 L242.424623,202.03207 L228.39772,210.389931 L238.145228,181.549423 Z M210.329166,202.03207 L214.608561,181.549423 L224.356069,210.389931 L210.329166,202.03207 Z" id="Shape"></path>
                    <path d="M334.358045,131.503143 L320.925502,149.749179 L315.219644,176.588509 L334.358045,188.006996 L353.496447,176.588509 L347.790588,149.631463 L334.358045,131.503143 Z M324.016176,150.220044 L334.358045,136.211798 L344.699914,150.220044 L334.358045,180.944014 L324.016176,150.220044 Z M346.126379,154.810982 L350.405773,175.293629 L336.37887,183.651491 L346.126379,154.810982 Z M318.310317,175.293629 L322.589711,154.810982 L332.33722,183.651491 L318.310317,175.293629 Z" id="Shape" transform="translate(334.358045, 159.755070) rotate(33.000000) translate(-334.358045, -159.755070) "></path>
                    <path d="M124.437532,113.001554 L111.00499,131.24759 L105.299131,158.08692 L124.437532,169.505407 L143.575934,158.08692 L137.870075,131.129873 L124.437532,113.001554 Z M114.095663,131.718455 L124.437532,117.710208 L134.779402,131.718455 L124.437532,162.442425 L114.095663,131.718455 Z M136.205866,136.309393 L140.485261,156.79204 L126.458358,165.149901 L136.205866,136.309393 Z M108.389804,156.79204 L112.669199,136.309393 L122.416707,165.149901 L108.389804,156.79204 Z" id="Shape" transform="translate(124.437532, 141.253480) rotate(44.000000) translate(-124.437532, -141.253480) "></path>
                    <path d="M311.301698,45.4568263 L297.869156,63.702862 L292.163297,90.542192 L311.301698,101.960679 L330.4401,90.542192 L324.734241,63.5851457 L311.301698,45.4568263 Z M300.959829,64.1737275 L311.301698,50.1654807 L321.643568,64.1737275 L311.301698,94.8976973 L300.959829,64.1737275 Z M323.070032,68.7646655 L327.349427,89.247312 L313.322524,97.6051735 L323.070032,68.7646655 Z M295.25397,89.247312 L299.533365,68.7646655 L309.280873,97.6051735 L295.25397,89.247312 Z" id="Shape" transform="translate(311.301698, 73.708753) rotate(52.000000) translate(-311.301698, -73.708753) "></path>
                    <path d="M116.086056,4.98224509 L102.653513,23.2282808 L96.9476541,50.0676107 L116.086056,61.4860976 L135.224457,50.0676107 L129.518599,23.1105644 L116.086056,4.98224509 Z M105.744187,23.6991462 L116.086056,9.69089947 L126.427925,23.6991462 L116.086056,54.423116 L105.744187,23.6991462 Z M127.85439,28.2900842 L132.133784,48.7727308 L118.106881,57.1305923 L127.85439,28.2900842 Z M100.038328,48.7727308 L104.317722,28.2900842 L114.065231,57.1305923 L100.038328,48.7727308 Z" id="Shape" transform="translate(116.086056, 33.234171) rotate(52.000000) translate(-116.086056, -33.234171) "></path>
                </g>
                <g id="Eosio_logo" transform="translate(215.756776, 289.383740) scale(-1, 1) rotate(-32.000000) translate(-215.756776, -289.383740) translate(35.756776, 171.383740)">
                    <path d="M29.2374061,19.0900581 L15.8048633,37.3360938 L10.0990044,64.1754238 L29.2374061,75.5939106 L48.3758077,64.1754238 L42.6699488,37.2183775 L29.2374061,19.0900581 Z M18.8955369,37.8069593 L29.2374061,23.7987125 L39.5792753,37.8069593 L29.2374061,68.530929 L18.8955369,37.8069593 Z M41.00574,42.3978973 L45.2851342,62.8805438 L31.2582311,71.2384053 L41.00574,42.3978973 Z M13.189678,62.8805438 L17.4690721,42.3978973 L27.2165811,71.2384053 L13.189678,62.8805438 Z" id="Shape" transform="translate(29.237406, 47.341984) rotate(24.000000) translate(-29.237406, -47.341984) "></path>
                    <path d="M236.778882,30.3553481 L223.346339,48.6013838 L217.64048,75.4407137 L236.778882,86.8592005 L255.917283,75.4407137 L250.211424,48.4836674 L236.778882,30.3553481 Z M226.437012,49.0722492 L236.778882,35.0640024 L247.120751,49.0722492 L236.778882,79.796219 L226.437012,49.0722492 Z M248.547216,53.6631872 L252.82661,74.1458337 L238.799707,82.5036953 L248.547216,53.6631872 Z M220.731153,74.1458337 L225.010548,53.6631872 L234.758057,82.5036953 L220.731153,74.1458337 Z" id="Shape" transform="translate(236.778882, 58.607274) rotate(21.000000) translate(-236.778882, -58.607274) "></path>
                    <path d="M282.270368,174.562743 L268.837826,192.808779 L263.131967,219.648109 L282.270368,231.066595 L301.40877,219.648109 L295.702911,192.691062 L282.270368,174.562743 Z M271.928499,193.279644 L282.270368,179.271397 L292.612238,193.279644 L282.270368,224.003614 L271.928499,193.279644 Z M294.038702,197.870582 L298.318096,218.353229 L284.291193,226.71109 L294.038702,197.870582 Z M266.22264,218.353229 L270.502034,197.870582 L280.249543,226.71109 L266.22264,218.353229 Z" id="Shape" transform="translate(282.270368, 202.814669) rotate(17.000000) translate(-282.270368, -202.814669) "></path>
                    <path d="M198.773615,114.905009 L185.341072,133.151045 L179.635213,159.990374 L198.773615,171.408861 L217.912017,159.990374 L212.206158,133.033328 L198.773615,114.905009 Z M188.431746,133.62191 L198.773615,119.613663 L209.115484,133.62191 L198.773615,164.34588 L188.431746,133.62191 Z M210.541949,138.212848 L214.821343,158.695495 L200.79444,167.053356 L210.541949,138.212848 Z M182.725887,158.695495 L187.005281,138.212848 L196.75279,167.053356 L182.725887,158.695495 Z" id="Shape" transform="translate(198.773615, 143.156935) rotate(1.000000) translate(-198.773615, -143.156935) "></path>
                    <path d="M324.958432,43.3543598 L311.525889,61.6003955 L305.82003,88.4397254 L324.958432,99.8582123 L344.096833,88.4397254 L338.390974,61.4826791 L324.958432,43.3543598 Z M314.616562,62.0712609 L324.958432,48.0630142 L335.300301,62.0712609 L324.958432,92.7952307 L314.616562,62.0712609 Z M336.726766,66.662199 L341.00616,87.1448455 L326.979257,95.502707 L336.726766,66.662199 Z M308.910704,87.1448455 L313.190098,66.662199 L322.937607,95.502707 L308.910704,87.1448455 Z" id="Shape" transform="translate(324.958432, 71.606286) rotate(52.000000) translate(-324.958432, -71.606286) "></path>
                    <path d="M142.086056,4.98224509 L128.653513,23.2282808 L122.947654,50.0676107 L142.086056,61.4860976 L161.224457,50.0676107 L155.518599,23.1105644 L142.086056,4.98224509 Z M131.744187,23.6991462 L142.086056,9.69089947 L152.427925,23.6991462 L142.086056,54.423116 L131.744187,23.6991462 Z M153.85439,28.2900842 L158.133784,48.7727308 L144.106881,57.1305923 L153.85439,28.2900842 Z M126.038328,48.7727308 L130.317722,28.2900842 L140.065231,57.1305923 L126.038328,48.7727308 Z" id="Shape" transform="translate(142.086056, 33.234171) rotate(52.000000) translate(-142.086056, -33.234171) "></path>
                </g>
                <g id="Eosio_logo" transform="translate(530.162807, 261.170638) scale(-1, 1) rotate(-21.000000) translate(-530.162807, -261.170638) translate(297.162807, 71.670638)">
                    <path d="M192.956898,122.457134 L179.524356,140.70317 L173.818497,167.5425 L192.956898,178.960986 L212.0953,167.5425 L206.389441,140.585453 L192.956898,122.457134 Z M182.615029,141.174035 L192.956898,127.165788 L203.298767,141.174035 L192.956898,171.898005 L182.615029,141.174035 Z M204.725232,145.764973 L209.004626,166.24762 L194.977723,174.605481 L204.725232,145.764973 Z M176.90917,166.24762 L181.188564,145.764973 L190.936073,174.605481 L176.90917,166.24762 Z" id="Shape" transform="translate(192.956898, 150.709060) rotate(21.000000) translate(-192.956898, -150.709060) "></path>
                    <path d="M389.047634,147.3855 L375.615091,165.631536 L369.909232,192.470866 L389.047634,203.889353 L408.186035,192.470866 L402.480177,165.51382 L389.047634,147.3855 Z M378.705765,166.102401 L389.047634,152.094155 L399.389503,166.102401 L389.047634,196.826371 L378.705765,166.102401 Z M400.815968,170.693339 L405.095362,191.175986 L391.068459,199.533847 L400.815968,170.693339 Z M372.999906,191.175986 L377.2793,170.693339 L387.026809,199.533847 L372.999906,191.175986 Z" id="Shape"></path>
                    <path d="M189.126646,209.747831 L175.694103,227.993866 L169.988245,254.833196 L189.126646,266.251683 L208.265048,254.833196 L202.559189,227.87615 L189.126646,209.747831 Z M178.784777,228.464732 L189.126646,214.456485 L199.468515,228.464732 L189.126646,259.188702 L178.784777,228.464732 Z M200.89498,233.05567 L205.174374,253.538316 L191.147471,261.896178 L200.89498,233.05567 Z M173.078918,253.538316 L177.358312,233.05567 L187.105821,261.896178 L173.078918,253.538316 Z" id="Shape" transform="translate(189.126646, 237.999757) rotate(17.000000) translate(-189.126646, -237.999757) "></path>
                    <path d="M438.661363,317.509978 L425.22882,335.756014 L419.522961,362.595344 L438.661363,374.01383 L457.799765,362.595344 L452.093906,335.638297 L438.661363,317.509978 Z M428.319494,336.226879 L438.661363,322.218632 L449.003232,336.226879 L438.661363,366.950849 L428.319494,336.226879 Z M450.429697,340.817817 L454.709091,361.300464 L440.682188,369.658325 L450.429697,340.817817 Z M422.613635,361.300464 L426.893029,340.817817 L436.640538,369.658325 L422.613635,361.300464 Z" id="Shape" transform="translate(438.661363, 345.761904) rotate(17.000000) translate(-438.661363, -345.761904) "></path>
                    <path d="M296.824922,195.37537 L283.392379,213.621405 L277.68652,240.460735 L296.824922,251.879222 L315.963323,240.460735 L310.257464,213.503689 L296.824922,195.37537 Z M286.483052,214.092271 L296.824922,200.084024 L307.166791,214.092271 L296.824922,244.816241 L286.483052,214.092271 Z M308.593255,218.683209 L312.87265,239.165855 L298.845747,247.523717 L308.593255,218.683209 Z M280.777193,239.165855 L285.056588,218.683209 L294.804097,247.523717 L280.777193,239.165855 Z" id="Shape" transform="translate(296.824922, 223.627296) rotate(44.000000) translate(-296.824922, -223.627296) "></path>
                    <path d="M281.012299,94.2052077 L267.579756,112.451243 L261.873897,139.290573 L281.012299,150.70906 L300.150701,139.290573 L294.444842,112.333527 L281.012299,94.2052077 Z M270.67043,112.922109 L281.012299,98.9138621 L291.354168,112.922109 L281.012299,143.646079 L270.67043,112.922109 Z M292.780633,117.513047 L297.060027,137.995693 L283.033124,146.353555 L292.780633,117.513047 Z M264.964571,137.995693 L269.243965,117.513047 L278.991474,146.353555 L264.964571,137.995693 Z" id="Shape" transform="translate(281.012299, 122.457134) rotate(14.000000) translate(-281.012299, -122.457134) "></path>
                    <path d="M89.0860557,89.9822451 L75.653513,108.228281 L69.9476541,135.067611 L89.0860557,146.486098 L108.224457,135.067611 L102.518599,108.110564 L89.0860557,89.9822451 Z M78.7441865,108.699146 L89.0860557,94.6908995 L99.427925,108.699146 L89.0860557,139.423116 L78.7441865,108.699146 Z M100.85439,113.290084 L105.133784,133.772731 L91.1068808,142.130592 L100.85439,113.290084 Z M73.0383277,133.772731 L77.3177218,113.290084 L87.0652307,142.130592 L73.0383277,133.772731 Z" id="Shape" transform="translate(89.086056, 118.234171) rotate(52.000000) translate(-89.086056, -118.234171) "></path>
                    <path d="M74.9203634,178.151 L61.4878206,196.397036 L55.7819617,223.236366 L74.9203634,234.654853 L94.058765,223.236366 L88.3529061,196.279319 L74.9203634,178.151 Z M64.5784941,196.867901 L74.9203634,182.859654 L85.2622326,196.867901 L74.9203634,227.591871 L64.5784941,196.867901 Z M86.6886973,201.458839 L90.9680914,221.941486 L76.9411884,230.299347 L86.6886973,201.458839 Z M58.8726353,221.941486 L63.1520294,201.458839 L72.8995383,230.299347 L58.8726353,221.941486 Z" id="Shape" transform="translate(74.920363, 206.402926) rotate(13.000000) translate(-74.920363, -206.402926) "></path>
                    <path d="M34.9681182,4.93961559 L21.5355754,23.1856513 L15.8297165,50.0249812 L34.9681182,61.4434681 L54.1065198,50.0249812 L48.4006609,23.0679349 L34.9681182,4.93961559 Z M24.626249,23.6565167 L34.9681182,9.64826996 L45.3099874,23.6565167 L34.9681182,54.3804865 L24.626249,23.6565167 Z M46.7364521,28.2474547 L51.0158463,48.7301013 L36.9889432,57.0879628 L46.7364521,28.2474547 Z M18.9203901,48.7301013 L23.1997842,28.2474547 L32.9472932,57.0879628 L18.9203901,48.7301013 Z" id="Shape" transform="translate(34.968118, 33.191542) rotate(52.000000) translate(-34.968118, -33.191542) "></path>
                </g>
            </g>
        </g>
    </g>
</svg>